<svg version="1.1" viewBox="0.0 0.0 960.0 720.0" fill="none" stroke="none" stroke-linecap="square" stroke-miterlimit="10" xmlns:xlink="http://www.w3.org/1999/xlink" xmlns="http://www.w3.org/2000/svg"><clipPath id="p.0"><path d="m0 0l960.0 0l0 720.0l-960.0 0l0 -720.0z" clip-rule="nonzero"/></clipPath><g clip-path="url(#p.0)"><path fill="#000000" fill-opacity="0.0" d="m0 0l960.0 0l0 720.0l-960.0 0z" fill-rule="evenodd"/><path fill="#ffffff" d="m154.93701 189.56955l0 0c0 -24.161362 19.586655 -43.74803 43.74803 -43.74803l0 0c11.602692 0 22.730179 4.6091614 30.934525 12.813507c8.204346 8.204346 12.813507 19.331833 12.813507 30.934525l0 0c0 24.161377 -19.58667 43.74803 -43.74803 43.74803l0 0c-24.161377 0 -43.74803 -19.586655 -43.74803 -43.74803z" fill-rule="evenodd"/><path stroke="#000000" stroke-width="1.0" stroke-linejoin="round" stroke-linecap="butt" d="m154.93701 189.56955l0 0c0 -24.161362 19.586655 -43.74803 43.74803 -43.74803l0 0c11.602692 0 22.730179 4.6091614 30.934525 12.813507c8.204346 8.204346 12.813507 19.331833 12.813507 30.934525l0 0c0 24.161377 -19.58667 43.74803 -43.74803 43.74803l0 0c-24.161377 0 -43.74803 -19.586655 -43.74803 -43.74803z" fill-rule="evenodd"/><path fill="#000000" d="m180.5515 195.70955l0 -8.984375l1.375 0l0 1.28125q0.984375 -1.484375 2.859375 -1.484375q0.8125 0 1.484375 0.296875q0.6875 0.28125 1.015625 0.765625q0.34375 0.46875 0.484375 1.125q0.078125 0.421875 0.078125 1.46875l0 5.53125l-1.515625 0l0 -5.46875q0 -0.921875 -0.1875 -1.375q-0.171875 -0.46875 -0.625 -0.75q-0.453125 -0.28125 -1.0625 -0.28125q-0.96875 0 -1.671875 0.625q-0.703125 0.609375 -0.703125 2.34375l0 4.90625l-1.53125 0zm9.074585 -4.5q0 -2.484375 1.390625 -3.6875q1.15625 -1.0 2.8125 -1.0q1.859375 0 3.03125 1.21875q1.1875 1.203125 1.1875 3.34375q0 1.734375 -0.53125 2.734375q-0.515625 1.0 -1.515625 1.546875q-0.984375 0.546875 -2.171875 0.546875q-1.875 0 -3.046875 -1.203125q-1.15625 -1.21875 -1.15625 -3.5zm1.5625 0q0 1.734375 0.75 2.59375q0.75 0.859375 1.890625 0.859375q1.140625 0 1.890625 -0.859375q0.75 -0.875 0.75 -2.640625q0 -1.65625 -0.75 -2.515625q-0.75 -0.859375 -1.890625 -0.859375q-1.140625 0 -1.890625 0.859375q-0.75 0.84375 -0.75 2.5625zm14.46521 4.5l0 -1.140625q-0.84375 1.34375 -2.515625 1.34375q-1.0625 0 -1.96875 -0.59375q-0.90625 -0.59375 -1.40625 -1.65625q-0.484375 -1.0625 -0.484375 -2.4375q0 -1.34375 0.4375 -2.4375q0.453125 -1.09375 1.34375 -1.671875q0.90625 -0.59375 2.015625 -0.59375q0.8125 0 1.4375 0.34375q0.640625 0.34375 1.046875 0.890625l0 -4.453125l1.515625 0l0 12.40625l-1.421875 0zm-4.8125 -4.484375q0 1.71875 0.71875 2.578125q0.734375 0.859375 1.734375 0.859375q0.984375 0 1.6875 -0.8125q0.703125 -0.828125 0.703125 -2.5q0 -1.84375 -0.71875 -2.703125q-0.703125 -0.859375 -1.75 -0.859375q-1.015625 0 -1.703125 0.828125q-0.671875 0.828125 -0.671875 2.609375zm14.77771 1.59375l1.5625 0.1875q-0.359375 1.390625 -1.375 2.15625q-1.0 0.75 -2.5625 0.75q-1.984375 0 -3.140625 -1.203125q-1.140625 -1.21875 -1.140625 -3.421875q0 -2.265625 1.15625 -3.515625q1.171875 -1.25 3.03125 -1.25q1.8125 0 2.953125 1.234375q1.140625 1.21875 1.140625 3.4375q0 0.140625 -0.015625 0.40625l-6.703125 0q0.09375 1.484375 0.84375 2.28125q0.75 0.78125 1.875 0.78125q0.84375 0 1.4375 -0.4375q0.59375 -0.4375 0.9375 -1.40625zm-5.0 -2.46875l5.015625 0q-0.109375 -1.125 -0.578125 -1.703125q-0.734375 -0.875 -1.890625 -0.875q-1.046875 0 -1.765625 0.703125q-0.703125 0.703125 -0.78125 1.875z" fill-rule="nonzero"/><path fill="#ffffff" d="m266.63254 189.56955l0 0c0 -24.161362 19.58667 -43.74803 43.748047 -43.74803l0 0c11.602692 0 22.730164 4.6091614 30.93451 12.813507c8.204346 8.204346 12.813507 19.331833 12.813507 30.934525l0 0c0 24.161377 -19.58664 43.74803 -43.748016 43.74803l0 0c-24.161377 0 -43.748047 -19.586655 -43.748047 -43.74803z" fill-rule="evenodd"/><path stroke="#000000" stroke-width="1.0" stroke-linejoin="round" stroke-linecap="butt" d="m266.63254 189.56955l0 0c0 -24.161362 19.58667 -43.74803 43.748047 -43.74803l0 0c11.602692 0 22.730164 4.6091614 30.93451 12.813507c8.204346 8.204346 12.813507 19.331833 12.813507 30.934525l0 0c0 24.161377 -19.58664 43.74803 -43.748016 43.74803l0 0c-24.161377 0 -43.748047 -19.586655 -43.748047 -43.74803z" fill-rule="evenodd"/><path fill="#000000" d="m294.65125 195.70955l0 -8.984375l1.375 0l0 1.359375q0.515625 -0.953125 0.953125 -1.25q0.453125 -0.3125 0.984375 -0.3125q0.78125 0 1.5625 0.484375l-0.515625 1.421875q-0.5625 -0.328125 -1.125 -0.328125q-0.5 0 -0.890625 0.296875q-0.390625 0.296875 -0.5625 0.828125q-0.265625 0.8125 -0.265625 1.78125l0 4.703125l-1.515625 0zm5.8016663 -10.65625l0 -1.75l1.515625 0l0 1.75l-1.515625 0zm0 10.65625l0 -8.984375l1.515625 0l0 8.984375l-1.515625 0zm3.552887 0.75l1.484375 0.21875q0.09375 0.6875 0.515625 1.0q0.5625 0.421875 1.546875 0.421875q1.0625 0 1.625 -0.421875q0.578125 -0.421875 0.78125 -1.1875q0.125 -0.46875 0.109375 -1.953125q-0.984375 1.171875 -2.484375 1.171875q-1.84375 0 -2.859375 -1.328125q-1.015625 -1.34375 -1.015625 -3.21875q0 -1.28125 0.453125 -2.359375q0.46875 -1.09375 1.34375 -1.6875q0.890625 -0.59375 2.09375 -0.59375q1.59375 0 2.625 1.28125l0 -1.078125l1.40625 0l0 7.765625q0 2.09375 -0.4375 2.96875q-0.421875 0.875 -1.359375 1.375q-0.921875 0.515625 -2.265625 0.515625q-1.609375 0 -2.609375 -0.71875q-0.984375 -0.71875 -0.953125 -2.171875zm1.265625 -5.40625q0 1.765625 0.703125 2.578125q0.703125 0.8125 1.75 0.8125q1.0625 0 1.765625 -0.796875q0.71875 -0.8125 0.71875 -2.546875q0 -1.640625 -0.734375 -2.46875q-0.734375 -0.84375 -1.765625 -0.84375q-1.015625 0 -1.734375 0.828125q-0.703125 0.8125 -0.703125 2.4375zm8.65271 4.65625l0 -12.40625l1.53125 0l0 4.453125q1.0625 -1.234375 2.6875 -1.234375q1.0 0 1.734375 0.390625q0.734375 0.390625 1.046875 1.09375q0.328125 0.6875 0.328125 2.015625l0 5.6875l-1.53125 0l0 -5.6875q0 -1.15625 -0.5 -1.671875q-0.484375 -0.515625 -1.390625 -0.515625q-0.6875 0 -1.28125 0.359375q-0.59375 0.34375 -0.84375 0.953125q-0.25 0.59375 -0.25 1.640625l0 4.921875l-1.53125 0zm12.96521 -1.359375l0.21875 1.34375q-0.640625 0.140625 -1.15625 0.140625q-0.828125 0 -1.28125 -0.265625q-0.453125 -0.265625 -0.640625 -0.6875q-0.1875 -0.4375 -0.1875 -1.796875l0 -5.171875l-1.125 0l0 -1.1875l1.125 0l0 -2.21875l1.515625 -0.921875l0 3.140625l1.53125 0l0 1.1875l-1.53125 0l0 5.25q0 0.65625 0.078125 0.84375q0.078125 0.1875 0.25 0.296875q0.1875 0.109375 0.53125 0.109375q0.25 0 0.671875 -0.0625z" fill-rule="nonzero"/><path fill="#ffffff" d="m43.24147 189.56955l0 0c0 -24.161362 19.586658 -43.74803 43.74803 -43.74803l0 0c11.602699 0 22.730179 4.6091614 30.934532 12.813507c8.204346 8.204346 12.813499 19.331833 12.813499 30.934525l0 0c0 24.161377 -19.586662 43.74803 -43.74803 43.74803l0 0c-24.161373 0 -43.74803 -19.586655 -43.74803 -43.74803z" fill-rule="evenodd"/><path stroke="#000000" stroke-width="1.0" stroke-linejoin="round" stroke-linecap="butt" d="m43.24147 189.56955l0 0c0 -24.161362 19.586658 -43.74803 43.74803 -43.74803l0 0c11.602699 0 22.730179 4.6091614 30.934532 12.813507c8.204346 8.204346 12.813499 19.331833 12.813499 30.934525l0 0c0 24.161377 -19.586662 43.74803 -43.74803 43.74803l0 0c-24.161373 0 -43.74803 -19.586655 -43.74803 -43.74803z" fill-rule="evenodd"/><path fill="#000000" d="m76.54114 195.70955l0 -12.40625l1.515625 0l0 12.40625l-1.515625 0zm10.037262 -2.890625l1.5625 0.1875q-0.359375 1.390625 -1.375 2.15625q-1.0 0.75 -2.5625 0.75q-1.984375 0 -3.140625 -1.203125q-1.140625 -1.21875 -1.140625 -3.421875q0 -2.265625 1.15625 -3.515625q1.171875 -1.25 3.03125 -1.25q1.8125 0 2.953125 1.234375q1.140625 1.21875 1.140625 3.4375q0 0.140625 -0.015625 0.40625l-6.703125 0q0.09375 1.484375 0.84375 2.28125q0.75 0.78125 1.875 0.78125q0.84375 0 1.4375 -0.4375q0.59375 -0.4375 0.9375 -1.40625zm-5.0 -2.46875l5.015625 0q-0.109375 -1.125 -0.578125 -1.703125q-0.734375 -0.875 -1.890625 -0.875q-1.046875 0 -1.765625 0.703125q-0.703125 0.703125 -0.78125 1.875zm8.84021 5.359375l0 -7.796875l-1.34375 0l0 -1.1875l1.34375 0l0 -0.953125q0 -0.90625 0.171875 -1.34375q0.21875 -0.59375 0.765625 -0.953125q0.5625 -0.375 1.5625 -0.375q0.640625 0 1.421875 0.140625l-0.234375 1.328125q-0.46875 -0.078125 -0.890625 -0.078125q-0.703125 0 -1.0 0.296875q-0.28125 0.296875 -0.28125 1.109375l0 0.828125l1.75 0l0 1.1875l-1.75 0l0 7.796875l-1.515625 0zm7.783066 -1.359375l0.21875 1.34375q-0.640625 0.140625 -1.15625 0.140625q-0.828125 0 -1.28125 -0.265625q-0.453125 -0.265625 -0.640625 -0.6875q-0.1875 -0.4375 -0.1875 -1.796875l0 -5.171875l-1.125 0l0 -1.1875l1.125 0l0 -2.21875l1.515625 -0.921875l0 3.140625l1.53125 0l0 1.1875l-1.53125 0l0 5.25q0 0.65625 0.078125 0.84375q0.078125 0.1875 0.25 0.296875q0.1875 0.109375 0.53125 0.109375q0.25 0 0.671875 -0.0625z" fill-rule="nonzero"/><path fill="#ffffff" d="m154.93701 84.35433l0 0c0 -24.161373 19.586655 -43.74803 43.74803 -43.74803l0 0c11.602692 0 22.730179 4.6091537 30.934525 12.813499c8.204346 8.2043495 12.813507 19.331833 12.813507 30.934532l0 0c0 24.16137 -19.58667 43.748024 -43.74803 43.748024l0 0c-24.161377 0 -43.74803 -19.586655 -43.74803 -43.748024z" fill-rule="evenodd"/><path stroke="#000000" stroke-width="1.0" stroke-linejoin="round" stroke-linecap="butt" d="m154.93701 84.35433l0 0c0 -24.161373 19.586655 -43.74803 43.74803 -43.74803l0 0c11.602692 0 22.730179 4.6091537 30.934525 12.813499c8.204346 8.2043495 12.813507 19.331833 12.813507 30.934532l0 0c0 24.16137 -19.58667 43.748024 -43.74803 43.748024l0 0c-24.161377 0 -43.74803 -19.586655 -43.74803 -43.748024z" fill-rule="evenodd"/><path fill="#000000" d="m196.07921 90.49433l0 -1.3125q-1.046875 1.515625 -2.84375 1.515625q-0.796875 0 -1.5 -0.296875q-0.6875 -0.3125 -1.015625 -0.765625q-0.328125 -0.46875 -0.46875 -1.140625q-0.09375 -0.4375 -0.09375 -1.421875l0 -5.5625l1.515625 0l0 4.984375q0 1.1875 0.09375 1.609375q0.15625 0.59375 0.609375 0.9375q0.46875 0.34375 1.15625 0.34375q0.6875 0 1.28125 -0.34375q0.609375 -0.359375 0.859375 -0.953125q0.25 -0.609375 0.25 -1.765625l0 -4.8125l1.515625 0l0 8.984375l-1.359375 0zm3.74646 3.4375l0 -12.421875l1.390625 0l0 1.171875q0.484375 -0.6875 1.09375 -1.03125q0.625 -0.34375 1.515625 -0.34375q1.140625 0 2.015625 0.59375q0.890625 0.59375 1.328125 1.671875q0.453125 1.078125 0.453125 2.359375q0 1.375 -0.5 2.484375q-0.484375 1.109375 -1.4375 1.703125q-0.9375 0.578125 -1.96875 0.578125q-0.765625 0 -1.375 -0.3125q-0.609375 -0.328125 -0.984375 -0.828125l0 4.375l-1.53125 0zm1.375 -7.875q0 1.734375 0.703125 2.5625q0.703125 0.828125 1.703125 0.828125q1.015625 0 1.734375 -0.859375q0.734375 -0.859375 0.734375 -2.65625q0 -1.71875 -0.71875 -2.578125q-0.703125 -0.859375 -1.6875 -0.859375q-0.96875 0 -1.71875 0.921875q-0.75 0.90625 -0.75 2.640625z" fill-rule="nonzero"/><path fill="#ffffff" d="m154.93701 294.7848l0 0c0 -24.161377 19.586655 -43.748047 43.74803 -43.748047l0 0c11.602692 0 22.730179 4.6091614 30.934525 12.813507c8.204346 8.204346 12.813507 19.331818 12.813507 30.93454l0 0c0 24.161346 -19.58667 43.748016 -43.74803 43.748016l0 0c-24.161377 0 -43.74803 -19.58667 -43.74803 -43.748016z" fill-rule="evenodd"/><path stroke="#000000" stroke-width="1.0" stroke-linejoin="round" stroke-linecap="butt" d="m154.93701 294.7848l0 0c0 -24.161377 19.586655 -43.748047 43.74803 -43.748047l0 0c11.602692 0 22.730179 4.6091614 30.934525 12.813507c8.204346 8.204346 12.813507 19.331818 12.813507 30.93454l0 0c0 24.161346 -19.58667 43.748016 -43.74803 43.748016l0 0c-24.161377 0 -43.74803 -19.58667 -43.74803 -43.748016z" fill-rule="evenodd"/><path fill="#000000" d="m184.94125 300.92477l0 -1.140625q-0.84375 1.34375 -2.515625 1.34375q-1.0625 0 -1.96875 -0.59375q-0.90625 -0.59375 -1.40625 -1.65625q-0.484375 -1.0625 -0.484375 -2.4375q0 -1.34375 0.4375 -2.4375q0.453125 -1.09375 1.34375 -1.671875q0.90625 -0.59375 2.015625 -0.59375q0.8125 0 1.4375 0.34375q0.640625 0.34375 1.046875 0.890625l0 -4.453125l1.515625 0l0 12.40625l-1.421875 0zm-4.8125 -4.484375q0 1.71875 0.71875 2.578125q0.734375 0.859375 1.734375 0.859375q0.984375 0 1.6875 -0.8125q0.703125 -0.828125 0.703125 -2.5q0 -1.84375 -0.71875 -2.703125q-0.703125 -0.859375 -1.75 -0.859375q-1.015625 0 -1.703125 0.828125q-0.671875 0.828125 -0.671875 2.609375zm8.05896 -0.015625q0 -2.484375 1.390625 -3.6875q1.15625 -1.0 2.8125 -1.0q1.859375 0 3.03125 1.21875q1.1875 1.203125 1.1875 3.34375q0 1.734375 -0.53125 2.734375q-0.515625 1.0 -1.515625 1.546875q-0.984375 0.546875 -2.171875 0.546875q-1.875 0 -3.046875 -1.203125q-1.15625 -1.21875 -1.15625 -3.5zm1.5625 0q0 1.734375 0.75 2.59375q0.75 0.859375 1.890625 0.859375q1.140625 0 1.890625 -0.859375q0.75 -0.875 0.75 -2.640625q0 -1.65625 -0.75 -2.515625q-0.75 -0.859375 -1.890625 -0.859375q-1.140625 0 -1.890625 0.859375q-0.75 0.84375 -0.75 2.5625zm10.293335 4.5l-2.75 -8.984375l1.578125 0l1.421875 5.1875l0.546875 1.921875q0.03125 -0.140625 0.453125 -1.84375l1.4375 -5.265625l1.5625 0l1.34375 5.203125l0.453125 1.71875l0.515625 -1.734375l1.53125 -5.1875l1.484375 0l-2.8125 8.984375l-1.578125 0l-1.421875 -5.375l-0.359375 -1.53125l-1.8125 6.90625l-1.59375 0zm10.857574 0l0 -8.984375l1.375 0l0 1.28125q0.984375 -1.484375 2.859375 -1.484375q0.8125 0 1.484375 0.296875q0.6875 0.28125 1.015625 0.765625q0.34375 0.46875 0.484375 1.125q0.078125 0.421875 0.078125 1.46875l0 5.53125l-1.515625 0l0 -5.46875q0 -0.921875 -0.1875 -1.375q-0.171875 -0.46875 -0.625 -0.75q-0.453125 -0.28125 -1.0625 -0.28125q-0.96875 0 -1.671875 0.625q-0.703125 0.609375 -0.703125 2.34375l0 4.90625l-1.53125 0z" fill-rule="nonzero"/><path fill="#000000" fill-opacity="0.0" d="m198.62204 145.83464c0 -4.4330597 0.01576233 -6.649597 0.0315094 -8.866135c0.01574707 -2.2165375 0.03149414 -4.433075 0.03149414 -8.86615" fill-rule="evenodd"/><path stroke="#000000" stroke-width="1.0" stroke-linejoin="round" stroke-linecap="butt" d="m198.62204 145.83464c0 -4.4330597 0.01576233 -6.649597 0.0315094 -8.866135c0.01574707 -2.2165375 0.03149414 -4.433075 0.03149414 -8.86615" fill-rule="evenodd"/><path fill="#000000" fill-opacity="0.0" d="m242.43307 189.56955c6.0498962 0 9.076187 0.01574707 12.099808 0.03149414c3.0236053 0.01574707 6.044571 0.0315094 12.089157 0.0315094" fill-rule="evenodd"/><path stroke="#000000" stroke-width="1.0" stroke-linejoin="round" stroke-linecap="butt" d="m242.43307 189.56955c6.0498962 0 9.076187 0.01574707 12.099808 0.03149414c3.0236053 0.01574707 6.044571 0.0315094 12.089157 0.0315094" fill-rule="evenodd"/><path fill="#000000" fill-opacity="0.0" d="m198.68504 251.03674c0 -4.4297943 0.01574707 -6.643036 0.03149414 -8.859573c0.01574707 -2.2165375 0.03149414 -4.4363556 0.03149414 -8.872711" fill-rule="evenodd"/><path stroke="#000000" stroke-width="1.0" stroke-linejoin="round" stroke-linecap="butt" d="m198.68504 251.03674c0 -4.4297943 0.01574707 -6.643036 0.03149414 -8.859573c0.01574707 -2.2165375 0.03149414 -4.4363556 0.03149414 -8.872711" fill-rule="evenodd"/><path fill="#000000" fill-opacity="0.0" d="m130.73753 189.56955c6.0499115 0 9.076187 0.01574707 12.099808 0.03149414c3.0236206 0.01574707 6.044586 0.0315094 12.089172 0.0315094" fill-rule="evenodd"/><path stroke="#000000" stroke-width="1.0" stroke-linejoin="round" stroke-linecap="butt" d="m130.73753 189.56955c6.0499115 0 9.076187 0.01574707 12.099808 0.03149414c3.0236206 0.01574707 6.044586 0.0315094 12.089172 0.0315094" fill-rule="evenodd"/><path fill="#ffffff" d="m533.7087 189.60104l0 0c0 -24.161362 19.58667 -43.74803 43.747986 -43.74803l0 0c11.602722 0 22.730225 4.6091614 30.93457 12.813507c8.204346 8.204346 12.813477 19.331833 12.813477 30.934525l0 0c0 24.161377 -19.58667 43.74803 -43.748047 43.74803l0 0c-24.161316 0 -43.747986 -19.586655 -43.747986 -43.74803z" fill-rule="evenodd"/><path stroke="#000000" stroke-width="1.0" stroke-linejoin="round" stroke-linecap="butt" d="m533.7087 189.60104l0 0c0 -24.161362 19.58667 -43.74803 43.747986 -43.74803l0 0c11.602722 0 22.730225 4.6091614 30.93457 12.813507c8.204346 8.204346 12.813477 19.331833 12.813477 30.934525l0 0c0 24.161377 -19.58667 43.74803 -43.748047 43.74803l0 0c-24.161316 0 -43.747986 -19.586655 -43.747986 -43.74803z" fill-rule="evenodd"/><path fill="#000000" d="m559.3231 195.74106l0 -8.984375l1.375 0l0 1.28125q0.984375 -1.484375 2.859375 -1.484375q0.8125 0 1.484375 0.296875q0.6875 0.28125 1.015625 0.765625q0.34375 0.46875 0.484375 1.125q0.078125 0.421875 0.078125 1.46875l0 5.53125l-1.515625 0l0 -5.46875q0 -0.921875 -0.1875 -1.375q-0.171875 -0.46875 -0.625 -0.75q-0.453125 -0.28125 -1.0625 -0.28125q-0.96875 0 -1.671875 0.625q-0.703125 0.609375 -0.703125 2.34375l0 4.90625l-1.53125 0zm9.074585 -4.5q0 -2.484375 1.390625 -3.6875q1.15625 -1.0 2.8125 -1.0q1.859375 0 3.03125 1.21875q1.1875 1.203125 1.1875 3.34375q0 1.734375 -0.53125 2.734375q-0.515625 1.0 -1.515625 1.546875q-0.984375 0.546875 -2.171875 0.546875q-1.875 0 -3.046875 -1.203125q-1.15625 -1.21875 -1.15625 -3.5zm1.5625 0q0 1.734375 0.75 2.59375q0.75 0.859375 1.890625 0.859375q1.140625 0 1.890625 -0.859375q0.75 -0.875 0.75 -2.640625q0 -1.65625 -0.75 -2.515625q-0.75 -0.859375 -1.890625 -0.859375q-1.140625 0 -1.890625 0.859375q-0.75 0.84375 -0.75 2.5625zm14.46521 4.5l0 -1.140625q-0.84375 1.34375 -2.515625 1.34375q-1.0625 0 -1.96875 -0.59375q-0.90625 -0.59375 -1.40625 -1.65625q-0.484375 -1.0625 -0.484375 -2.4375q0 -1.34375 0.4375 -2.4375q0.453125 -1.09375 1.34375 -1.671875q0.90625 -0.59375 2.015625 -0.59375q0.8125 0 1.4375 0.34375q0.640625 0.34375 1.046875 0.890625l0 -4.453125l1.515625 0l0 12.40625l-1.421875 0zm-4.8125 -4.484375q0 1.71875 0.71875 2.578125q0.734375 0.859375 1.734375 0.859375q0.984375 0 1.6875 -0.8125q0.703125 -0.828125 0.703125 -2.5q0 -1.84375 -0.71875 -2.703125q-0.703125 -0.859375 -1.75 -0.859375q-1.015625 0 -1.703125 0.828125q-0.671875 0.828125 -0.671875 2.609375zm14.77771 1.59375l1.5625 0.1875q-0.359375 1.390625 -1.375 2.15625q-1.0 0.75 -2.5625 0.75q-1.984375 0 -3.140625 -1.203125q-1.140625 -1.21875 -1.140625 -3.421875q0 -2.265625 1.15625 -3.515625q1.171875 -1.25 3.03125 -1.25q1.8125 0 2.953125 1.234375q1.140625 1.21875 1.140625 3.4375q0 0.140625 -0.015625 0.40625l-6.703125 0q0.09375 1.484375 0.84375 2.28125q0.75 0.78125 1.875 0.78125q0.84375 0 1.4375 -0.4375q0.59375 -0.4375 0.9375 -1.40625zm-5.0 -2.46875l5.015625 0q-0.109375 -1.125 -0.578125 -1.703125q-0.734375 -0.875 -1.890625 -0.875q-1.046875 0 -1.765625 0.703125q-0.703125 0.703125 -0.78125 1.875z" fill-rule="nonzero"/><path fill="#ffffff" d="m645.4042 189.60104l0 0c0 -24.161362 19.58667 -43.74803 43.748047 -43.74803l0 0c11.602722 0 22.730164 4.6091614 30.93451 12.813507c8.204407 8.204346 12.813538 19.331833 12.813538 30.934525l0 0c0 24.161377 -19.58667 43.74803 -43.748047 43.74803l0 0c-24.161377 0 -43.748047 -19.586655 -43.748047 -43.74803z" fill-rule="evenodd"/><path stroke="#000000" stroke-width="1.0" stroke-linejoin="round" stroke-linecap="butt" d="m645.4042 189.60104l0 0c0 -24.161362 19.58667 -43.74803 43.748047 -43.74803l0 0c11.602722 0 22.730164 4.6091614 30.93451 12.813507c8.204407 8.204346 12.813538 19.331833 12.813538 30.934525l0 0c0 24.161377 -19.58667 43.74803 -43.748047 43.74803l0 0c-24.161377 0 -43.748047 -19.586655 -43.748047 -43.74803z" fill-rule="evenodd"/><path fill="#000000" d="m673.4229 195.74106l0 -8.984375l1.375 0l0 1.359375q0.515625 -0.953125 0.953125 -1.25q0.453125 -0.3125 0.984375 -0.3125q0.78125 0 1.5625 0.484375l-0.515625 1.421875q-0.5625 -0.328125 -1.125 -0.328125q-0.5 0 -0.890625 0.296875q-0.390625 0.296875 -0.5625 0.828125q-0.265625 0.8125 -0.265625 1.78125l0 4.703125l-1.515625 0zm5.8016357 -10.65625l0 -1.75l1.515625 0l0 1.75l-1.515625 0zm0 10.65625l0 -8.984375l1.515625 0l0 8.984375l-1.515625 0zm3.5529175 0.75l1.484375 0.21875q0.09375 0.6875 0.515625 1.0q0.5625 0.421875 1.546875 0.421875q1.0625 0 1.625 -0.421875q0.578125 -0.421875 0.78125 -1.1875q0.125 -0.46875 0.109375 -1.953125q-0.984375 1.171875 -2.484375 1.171875q-1.84375 0 -2.859375 -1.328125q-1.015625 -1.34375 -1.015625 -3.21875q0 -1.28125 0.453125 -2.359375q0.46875 -1.09375 1.34375 -1.6875q0.890625 -0.59375 2.09375 -0.59375q1.59375 0 2.625 1.28125l0 -1.078125l1.40625 0l0 7.765625q0 2.09375 -0.4375 2.96875q-0.421875 0.875 -1.359375 1.375q-0.921875 0.515625 -2.265625 0.515625q-1.609375 0 -2.609375 -0.71875q-0.984375 -0.71875 -0.953125 -2.171875zm1.265625 -5.40625q0 1.765625 0.703125 2.578125q0.703125 0.8125 1.75 0.8125q1.0625 0 1.765625 -0.796875q0.71875 -0.8125 0.71875 -2.546875q0 -1.640625 -0.734375 -2.46875q-0.734375 -0.84375 -1.765625 -0.84375q-1.015625 0 -1.734375 0.828125q-0.703125 0.8125 -0.703125 2.4375zm8.65271 4.65625l0 -12.40625l1.53125 0l0 4.453125q1.0625 -1.234375 2.6875 -1.234375q1.0 0 1.734375 0.390625q0.734375 0.390625 1.046875 1.09375q0.328125 0.6875 0.328125 2.015625l0 5.6875l-1.53125 0l0 -5.6875q0 -1.15625 -0.5 -1.671875q-0.484375 -0.515625 -1.390625 -0.515625q-0.6875 0 -1.28125 0.359375q-0.59375 0.34375 -0.84375 0.953125q-0.25 0.59375 -0.25 1.640625l0 4.921875l-1.53125 0zm12.96521 -1.359375l0.21875 1.34375q-0.640625 0.140625 -1.15625 0.140625q-0.828125 0 -1.28125 -0.265625q-0.453125 -0.265625 -0.640625 -0.6875q-0.1875 -0.4375 -0.1875 -1.796875l0 -5.171875l-1.125 0l0 -1.1875l1.125 0l0 -2.21875l1.515625 -0.921875l0 3.140625l1.53125 0l0 1.1875l-1.53125 0l0 5.25q0 0.65625 0.078125 0.84375q0.078125 0.1875 0.25 0.296875q0.1875 0.109375 0.53125 0.109375q0.25 0 0.671875 -0.0625z" fill-rule="nonzero"/><path fill="#ffffff" d="m422.01312 189.60104l0 0c0 -24.161362 19.58667 -43.74803 43.748047 -43.74803l0 0c11.602692 0 22.730164 4.6091614 30.93451 12.813507c8.204346 8.204346 12.813507 19.331833 12.813507 30.934525l0 0c0 24.161377 -19.58667 43.74803 -43.748016 43.74803l0 0c-24.161377 0 -43.748047 -19.586655 -43.748047 -43.74803z" fill-rule="evenodd"/><path stroke="#000000" stroke-width="1.0" stroke-linejoin="round" stroke-linecap="butt" d="m422.01312 189.60104l0 0c0 -24.161362 19.58667 -43.74803 43.748047 -43.74803l0 0c11.602692 0 22.730164 4.6091614 30.93451 12.813507c8.204346 8.204346 12.813507 19.331833 12.813507 30.934525l0 0c0 24.161377 -19.58667 43.74803 -43.748016 43.74803l0 0c-24.161377 0 -43.748047 -19.586655 -43.748047 -43.74803z" fill-rule="evenodd"/><path fill="#000000" d="m453.41495 195.74106l0 -8.984375l1.375 0l0 1.28125q0.984375 -1.484375 2.859375 -1.484375q0.8125 0 1.484375 0.296875q0.6875 0.28125 1.015625 0.765625q0.34375 0.46875 0.484375 1.125q0.078125 0.421875 0.078125 1.46875l0 5.53125l-1.515625 0l0 -5.46875q0 -0.921875 -0.1875 -1.375q-0.171875 -0.46875 -0.625 -0.75q-0.453125 -0.28125 -1.0625 -0.28125q-0.96875 0 -1.671875 0.625q-0.703125 0.609375 -0.703125 2.34375l0 4.90625l-1.53125 0zm15.52771 0l0 -1.3125q-1.046875 1.515625 -2.84375 1.515625q-0.796875 0 -1.5 -0.296875q-0.6875 -0.3125 -1.015625 -0.765625q-0.328125 -0.46875 -0.46875 -1.140625q-0.09375 -0.4375 -0.09375 -1.421875l0 -5.5625l1.515625 0l0 4.984375q0 1.1875 0.09375 1.609375q0.15625 0.59375 0.609375 0.9375q0.46875 0.34375 1.15625 0.34375q0.6875 0 1.28125 -0.34375q0.609375 -0.359375 0.859375 -0.953125q0.25 -0.609375 0.25 -1.765625l0 -4.8125l1.515625 0l0 8.984375l-1.359375 0zm3.71521 0l0 -12.40625l1.515625 0l0 12.40625l-1.515625 0zm3.849762 0l0 -12.40625l1.515625 0l0 12.40625l-1.515625 0z" fill-rule="nonzero"/><path fill="#ffffff" d="m533.7087 84.385826l0 0c0 -24.16137 19.58667 -43.74803 43.747986 -43.74803l0 0c11.602722 0 22.730225 4.6091537 30.93457 12.813503c8.204346 8.204346 12.813477 19.33183 12.813477 30.934528l0 0c0 24.16137 -19.58667 43.74804 -43.748047 43.74804l0 0c-24.161316 0 -43.747986 -19.58667 -43.747986 -43.74804z" fill-rule="evenodd"/><path stroke="#000000" stroke-width="1.0" stroke-linejoin="round" stroke-linecap="butt" d="m533.7087 84.385826l0 0c0 -24.16137 19.58667 -43.74803 43.747986 -43.74803l0 0c11.602722 0 22.730225 4.6091537 30.93457 12.813503c8.204346 8.204346 12.813477 19.33183 12.813477 30.934528l0 0c0 24.16137 -19.58667 43.74804 -43.748047 43.74804l0 0c-24.161316 0 -43.747986 -19.58667 -43.747986 -43.74804z" fill-rule="evenodd"/><path fill="#000000" d="m565.1105 90.525826l0 -8.984375l1.375 0l0 1.28125q0.984375 -1.484375 2.859375 -1.484375q0.8125 0 1.484375 0.296875q0.6875 0.28125 1.015625 0.765625q0.34375 0.46875 0.484375 1.125q0.078125 0.421875 0.078125 1.46875l0 5.53125l-1.515625 0l0 -5.46875q0 -0.921875 -0.1875 -1.375q-0.171875 -0.46875 -0.625 -0.75q-0.453125 -0.28125 -1.0625 -0.28125q-0.96875 0 -1.671875 0.625q-0.703125 0.609375 -0.703125 2.34375l0 4.90625l-1.53125 0zm15.52771 0l0 -1.3125q-1.046875 1.515625 -2.84375 1.515625q-0.796875 0 -1.5 -0.296875q-0.6875 -0.3125 -1.015625 -0.765625q-0.328125 -0.46875 -0.46875 -1.140625q-0.09375 -0.4375 -0.09375 -1.421875l0 -5.5625l1.515625 0l0 4.984375q0 1.1875 0.09375 1.609375q0.15625 0.59375 0.609375 0.9375q0.46875 0.34375 1.15625 0.34375q0.6875 0 1.28125 -0.34375q0.609375 -0.359375 0.859375 -0.953125q0.25 -0.609375 0.25 -1.765625l0 -4.8125l1.515625 0l0 8.984375l-1.359375 0zm3.71521 0l0 -12.40625l1.515625 0l0 12.40625l-1.515625 0zm3.8497314 0l0 -12.40625l1.515625 0l0 12.40625l-1.515625 0z" fill-rule="nonzero"/><path fill="#ffffff" d="m533.7087 294.81628l0 0c0 -24.161377 19.58667 -43.748047 43.747986 -43.748047l0 0c11.602722 0 22.730225 4.6091614 30.93457 12.813507c8.204346 8.204346 12.813477 19.331818 12.813477 30.93454l0 0c0 24.161346 -19.58667 43.748016 -43.748047 43.748016l0 0c-24.161316 0 -43.747986 -19.58667 -43.747986 -43.748016z" fill-rule="evenodd"/><path stroke="#000000" stroke-width="1.0" stroke-linejoin="round" stroke-linecap="butt" d="m533.7087 294.81628l0 0c0 -24.161377 19.58667 -43.748047 43.747986 -43.748047l0 0c11.602722 0 22.730225 4.6091614 30.93457 12.813507c8.204346 8.204346 12.813477 19.331818 12.813477 30.93454l0 0c0 24.161346 -19.58667 43.748016 -43.748047 43.748016l0 0c-24.161316 0 -43.747986 -19.58667 -43.747986 -43.748016z" fill-rule="evenodd"/><path fill="#000000" d="m563.7129 300.95627l0 -1.140625q-0.84375 1.34375 -2.515625 1.34375q-1.0625 0 -1.96875 -0.59375q-0.90625 -0.59375 -1.40625 -1.65625q-0.484375 -1.0625 -0.484375 -2.4375q0 -1.34375 0.4375 -2.4375q0.453125 -1.09375 1.34375 -1.671875q0.90625 -0.59375 2.015625 -0.59375q0.8125 0 1.4375 0.34375q0.640625 0.34375 1.046875 0.890625l0 -4.453125l1.515625 0l0 12.40625l-1.421875 0zm-4.8125 -4.484375q0 1.71875 0.71875 2.578125q0.734375 0.859375 1.734375 0.859375q0.984375 0 1.6875 -0.8125q0.703125 -0.828125 0.703125 -2.5q0 -1.84375 -0.71875 -2.703125q-0.703125 -0.859375 -1.75 -0.859375q-1.015625 0 -1.703125 0.828125q-0.671875 0.828125 -0.671875 2.609375zm8.05896 -0.015625q0 -2.484375 1.390625 -3.6875q1.15625 -1.0 2.8125 -1.0q1.859375 0 3.03125 1.21875q1.1875 1.203125 1.1875 3.34375q0 1.734375 -0.53125 2.734375q-0.515625 1.0 -1.515625 1.546875q-0.984375 0.546875 -2.171875 0.546875q-1.875 0 -3.046875 -1.203125q-1.15625 -1.21875 -1.15625 -3.5zm1.5625 0q0 1.734375 0.75 2.59375q0.75 0.859375 1.890625 0.859375q1.140625 0 1.890625 -0.859375q0.75 -0.875 0.75 -2.640625q0 -1.65625 -0.75 -2.515625q-0.75 -0.859375 -1.890625 -0.859375q-1.140625 0 -1.890625 0.859375q-0.75 0.84375 -0.75 2.5625zm10.293335 4.5l-2.75 -8.984375l1.578125 0l1.421875 5.1875l0.546875 1.921875q0.03125 -0.140625 0.453125 -1.84375l1.4375 -5.265625l1.5625 0l1.34375 5.203125l0.453125 1.71875l0.515625 -1.734375l1.53125 -5.1875l1.484375 0l-2.8125 8.984375l-1.578125 0l-1.421875 -5.375l-0.359375 -1.53125l-1.8125 6.90625l-1.59375 0zm10.857605 0l0 -8.984375l1.375 0l0 1.28125q0.984375 -1.484375 2.859375 -1.484375q0.8125 0 1.484375 0.296875q0.6875 0.28125 1.015625 0.765625q0.34375 0.46875 0.484375 1.125q0.078125 0.421875 0.078125 1.46875l0 5.53125l-1.515625 0l0 -5.46875q0 -0.921875 -0.1875 -1.375q-0.171875 -0.46875 -0.625 -0.75q-0.453125 -0.28125 -1.0625 -0.28125q-0.96875 0 -1.671875 0.625q-0.703125 0.609375 -0.703125 2.34375l0 4.90625l-1.53125 0z" fill-rule="nonzero"/><path fill="#000000" fill-opacity="0.0" d="m577.3937 145.86613c0 -4.4330597 0.01574707 -6.649597 0.03149414 -8.866135c0.01574707 -2.2165375 0.03149414 -4.433075 0.03149414 -8.866135" fill-rule="evenodd"/><path stroke="#000000" stroke-width="1.0" stroke-linejoin="round" stroke-linecap="butt" d="m577.3937 145.86613c0 -4.4330597 0.01574707 -6.649597 0.03149414 -8.866135c0.01574707 -2.2165375 0.03149414 -4.433075 0.03149414 -8.866135" fill-rule="evenodd"/><path fill="#000000" fill-opacity="0.0" d="m621.2047 189.60104c6.0499268 0 9.076172 0.01574707 12.0997925 0.0315094c3.0236816 0.01574707 6.0446167 0.03149414 12.089172 0.03149414" fill-rule="evenodd"/><path stroke="#000000" stroke-width="1.0" stroke-linejoin="round" stroke-linecap="butt" d="m621.2047 189.60104c6.0499268 0 9.076172 0.01574707 12.0997925 0.0315094c3.0236816 0.01574707 6.0446167 0.03149414 12.089172 0.03149414" fill-rule="evenodd"/><path fill="#000000" fill-opacity="0.0" d="m577.45667 251.06824c0 -4.429779 0.01574707 -6.643036 0.03149414 -8.859573c0.015808105 -2.2165375 0.031555176 -4.4363556 0.031555176 -8.872711" fill-rule="evenodd"/><path stroke="#000000" stroke-width="1.0" stroke-linejoin="round" stroke-linecap="butt" d="m577.45667 251.06824c0 -4.429779 0.01574707 -6.643036 0.03149414 -8.859573c0.015808105 -2.2165375 0.031555176 -4.4363556 0.031555176 -8.872711" fill-rule="evenodd"/><path fill="#000000" fill-opacity="0.0" d="m509.5092 189.60104c6.0498962 0 9.076202 0.01574707 12.099823 0.0315094c3.0236206 0.01574707 6.0445557 0.03149414 12.089172 0.03149414" fill-rule="evenodd"/><path stroke="#000000" stroke-width="1.0" stroke-linejoin="round" stroke-linecap="butt" d="m509.5092 189.60104c6.0498962 0 9.076202 0.01574707 12.099823 0.0315094c3.0236206 0.01574707 6.0445557 0.03149414 12.089172 0.03149414" fill-rule="evenodd"/><path fill="#ffffff" d="m154.90552 548.90027l0 0c0 -24.161377 19.586655 -43.748047 43.74803 -43.748047l0 0c11.602692 0 22.730179 4.6091614 30.934525 12.813538c8.204346 8.204346 12.813507 19.331787 12.813507 30.93451l0 0c0 24.161377 -19.58667 43.748047 -43.74803 43.748047l0 0c-24.161377 0 -43.74803 -19.58667 -43.74803 -43.748047z" fill-rule="evenodd"/><path stroke="#000000" stroke-width="1.0" stroke-linejoin="round" stroke-linecap="butt" d="m154.90552 548.90027l0 0c0 -24.161377 19.586655 -43.748047 43.74803 -43.748047l0 0c11.602692 0 22.730179 4.6091614 30.934525 12.813538c8.204346 8.204346 12.813507 19.331787 12.813507 30.93451l0 0c0 24.161377 -19.58667 43.748047 -43.74803 43.748047l0 0c-24.161377 0 -43.74803 -19.58667 -43.74803 -43.748047z" fill-rule="evenodd"/><path fill="#000000" d="m186.5252 555.0403l-2.75 -8.984375l1.578125 0l1.421875 5.1875l0.546875 1.921875q0.03125 -0.140625 0.453125 -1.84375l1.4375 -5.265625l1.5625 0l1.34375 5.203125l0.453125 1.71875l0.515625 -1.734375l1.53125 -5.1875l1.484375 0l-2.8125 8.984375l-1.578125 0l-1.421875 -5.375l-0.359375 -1.53125l-1.8125 6.90625l-1.59375 0zm16.71695 -1.109375q-0.84375 0.71875 -1.625 1.015625q-0.78125 0.296875 -1.671875 0.296875q-1.484375 0 -2.28125 -0.71875q-0.796875 -0.734375 -0.796875 -1.859375q0 -0.65625 0.296875 -1.203125q0.3125 -0.546875 0.796875 -0.875q0.484375 -0.328125 1.09375 -0.5q0.4375 -0.109375 1.34375 -0.21875q1.84375 -0.21875 2.71875 -0.53125q0.015625 -0.3125 0.015625 -0.390625q0 -0.9375 -0.4375 -1.3125q-0.578125 -0.515625 -1.734375 -0.515625q-1.078125 0 -1.59375 0.375q-0.5 0.375 -0.75 1.328125l-1.484375 -0.203125q0.203125 -0.953125 0.65625 -1.53125q0.46875 -0.59375 1.34375 -0.90625q0.890625 -0.328125 2.046875 -0.328125q1.15625 0 1.875 0.28125q0.71875 0.265625 1.046875 0.671875q0.34375 0.40625 0.484375 1.03125q0.078125 0.390625 0.078125 1.40625l0 2.03125q0 2.125 0.09375 2.6875q0.09375 0.5625 0.390625 1.078125l-1.59375 0q-0.234375 -0.46875 -0.3125 -1.109375zm-0.125 -3.40625q-0.828125 0.34375 -2.484375 0.578125q-0.9375 0.140625 -1.328125 0.3125q-0.390625 0.171875 -0.609375 0.5q-0.203125 0.3125 -0.203125 0.71875q0 0.609375 0.453125 1.015625q0.46875 0.40625 1.359375 0.40625q0.875 0 1.5625 -0.390625q0.6875 -0.390625 1.015625 -1.046875q0.234375 -0.515625 0.234375 -1.53125l0 -0.5625zm3.87146 4.515625l0 -12.40625l1.515625 0l0 12.40625l-1.515625 0zm3.849762 0l0 -12.40625l1.515625 0l0 12.40625l-1.515625 0z" fill-rule="nonzero"/><path fill="#ffffff" d="m266.60104 548.90027l0 0c0 -24.161377 19.58667 -43.748047 43.748047 -43.748047l0 0c11.602692 0 22.730164 4.6091614 30.93451 12.813538c8.204346 8.204346 12.813507 19.331787 12.813507 30.93451l0 0c0 24.161377 -19.58667 43.748047 -43.748016 43.748047l0 0c-24.161377 0 -43.748047 -19.58667 -43.748047 -43.748047z" fill-rule="evenodd"/><path stroke="#000000" stroke-width="1.0" stroke-linejoin="round" stroke-linecap="butt" d="m266.60104 548.90027l0 0c0 -24.161377 19.58667 -43.748047 43.748047 -43.748047l0 0c11.602692 0 22.730164 4.6091614 30.93451 12.813538c8.204346 8.204346 12.813507 19.331787 12.813507 30.93451l0 0c0 24.161377 -19.58667 43.748047 -43.748016 43.748047l0 0c-24.161377 0 -43.748047 -19.58667 -43.748047 -43.748047z" fill-rule="evenodd"/><path fill="#000000" d="m298.22073 555.0403l-2.75 -8.984375l1.578125 0l1.421875 5.1875l0.546875 1.921875q0.03125 -0.140625 0.453125 -1.84375l1.4375 -5.265625l1.5625 0l1.34375 5.203125l0.453125 1.71875l0.515625 -1.734375l1.53125 -5.1875l1.484375 0l-2.8125 8.984375l-1.578125 0l-1.421875 -5.375l-0.359375 -1.53125l-1.8125 6.90625l-1.59375 0zm16.71695 -1.109375q-0.84375 0.71875 -1.625 1.015625q-0.78125 0.296875 -1.671875 0.296875q-1.484375 0 -2.28125 -0.71875q-0.796875 -0.734375 -0.796875 -1.859375q0 -0.65625 0.296875 -1.203125q0.3125 -0.546875 0.796875 -0.875q0.484375 -0.328125 1.09375 -0.5q0.4375 -0.109375 1.34375 -0.21875q1.84375 -0.21875 2.71875 -0.53125q0.015625 -0.3125 0.015625 -0.390625q0 -0.9375 -0.4375 -1.3125q-0.578125 -0.515625 -1.734375 -0.515625q-1.078125 0 -1.59375 0.375q-0.5 0.375 -0.75 1.328125l-1.484375 -0.203125q0.203125 -0.953125 0.65625 -1.53125q0.46875 -0.59375 1.34375 -0.90625q0.890625 -0.328125 2.046875 -0.328125q1.15625 0 1.875 0.28125q0.71875 0.265625 1.046875 0.671875q0.34375 0.40625 0.484375 1.03125q0.078125 0.390625 0.078125 1.40625l0 2.03125q0 2.125 0.09375 2.6875q0.09375 0.5625 0.390625 1.078125l-1.59375 0q-0.234375 -0.46875 -0.3125 -1.109375zm-0.125 -3.40625q-0.828125 0.34375 -2.484375 0.578125q-0.9375 0.140625 -1.328125 0.3125q-0.390625 0.171875 -0.609375 0.5q-0.203125 0.3125 -0.203125 0.71875q0 0.609375 0.453125 1.015625q0.46875 0.40625 1.359375 0.40625q0.875 0 1.5625 -0.390625q0.6875 -0.390625 1.015625 -1.046875q0.234375 -0.515625 0.234375 -1.53125l0 -0.5625zm3.87146 4.515625l0 -12.40625l1.515625 0l0 12.40625l-1.515625 0zm3.849762 0l0 -12.40625l1.515625 0l0 12.40625l-1.515625 0z" fill-rule="nonzero"/><path fill="#d9d9d9" d="m43.209972 548.90027l0 0c0 -24.161377 19.586662 -43.748047 43.748035 -43.748047l0 0c11.602699 0 22.730179 4.6091614 30.934525 12.813538c8.204353 8.204346 12.813507 19.331787 12.813507 30.93451l0 0c0 24.161377 -19.586662 43.748047 -43.74803 43.748047l0 0c-24.161373 0 -43.748035 -19.58667 -43.748035 -43.748047z" fill-rule="evenodd"/><path stroke="#000000" stroke-width="1.0" stroke-linejoin="round" stroke-linecap="butt" d="m43.209972 548.90027l0 0c0 -24.161377 19.586662 -43.748047 43.748035 -43.748047l0 0c11.602699 0 22.730179 4.6091614 30.934525 12.813538c8.204353 8.204346 12.813507 19.331787 12.813507 30.93451l0 0c0 24.161377 -19.586662 43.748047 -43.74803 43.748047l0 0c-24.161373 0 -43.748035 -19.58667 -43.748035 -43.748047z" fill-rule="evenodd"/><path fill="#000000" d="m74.611786 555.0403l0 -8.984375l1.375 0l0 1.28125q0.984375 -1.484375 2.859375 -1.484375q0.8125 0 1.484375 0.296875q0.6875 0.28125 1.015625 0.765625q0.34375 0.46875 0.484375 1.125q0.078125 0.421875 0.078125 1.46875l0 5.53125l-1.515625 0l0 -5.46875q0 -0.921875 -0.1875 -1.375q-0.171875 -0.46875 -0.625 -0.75q-0.453125 -0.28125 -1.0625 -0.28125q-0.96875 0 -1.671875 0.625q-0.703125 0.609375 -0.703125 2.34375l0 4.90625l-1.53125 0zm15.52771 0l0 -1.3125q-1.046875 1.515625 -2.84375 1.515625q-0.796875 0 -1.5 -0.296875q-0.6875 -0.3125 -1.015625 -0.765625q-0.328125 -0.46875 -0.46875 -1.140625q-0.09375 -0.4375 -0.09375 -1.421875l0 -5.5625l1.515625 0l0 4.984375q0 1.1875 0.09375 1.609375q0.15625 0.59375 0.609375 0.9375q0.46875 0.34375 1.15625 0.34375q0.6875 0 1.28125 -0.34375q0.609375 -0.359375 0.859375 -0.953125q0.25 -0.609375 0.25 -1.765625l0 -4.8125l1.515625 0l0 8.984375l-1.359375 0zm3.71521 0l0 -12.40625l1.515625 0l0 12.40625l-1.515625 0zm3.849762 0l0 -12.40625l1.515625 0l0 12.40625l-1.515625 0z" fill-rule="nonzero"/><path fill="#d9d9d9" d="m154.90552 443.68503l0 0c0 -24.161346 19.586655 -43.748016 43.74803 -43.748016l0 0c11.602692 0 22.730179 4.6091614 30.934525 12.813507c8.204346 8.204346 12.813507 19.331818 12.813507 30.93451l0 0c0 24.161377 -19.58667 43.748047 -43.74803 43.748047l0 0c-24.161377 0 -43.74803 -19.58667 -43.74803 -43.748047z" fill-rule="evenodd"/><path stroke="#000000" stroke-width="1.0" stroke-linejoin="round" stroke-linecap="butt" d="m154.90552 443.68503l0 0c0 -24.161346 19.586655 -43.748016 43.74803 -43.748016l0 0c11.602692 0 22.730179 4.6091614 30.934525 12.813507c8.204346 8.204346 12.813507 19.331818 12.813507 30.93451l0 0c0 24.161377 -19.58667 43.748047 -43.74803 43.748047l0 0c-24.161377 0 -43.74803 -19.58667 -43.74803 -43.748047z" fill-rule="evenodd"/><path fill="#000000" d="m186.30733 449.82504l0 -8.984375l1.375 0l0 1.28125q0.984375 -1.484375 2.859375 -1.484375q0.8125 0 1.484375 0.296875q0.6875 0.28125 1.015625 0.765625q0.34375 0.46875 0.484375 1.125q0.078125 0.421875 0.078125 1.46875l0 5.53125l-1.515625 0l0 -5.46875q0 -0.921875 -0.1875 -1.375q-0.171875 -0.46875 -0.625 -0.75q-0.453125 -0.28125 -1.0625 -0.28125q-0.96875 0 -1.671875 0.625q-0.703125 0.609375 -0.703125 2.34375l0 4.90625l-1.53125 0zm15.52771 0l0 -1.3125q-1.046875 1.515625 -2.84375 1.515625q-0.796875 0 -1.5 -0.296875q-0.6875 -0.3125 -1.015625 -0.765625q-0.328125 -0.46875 -0.46875 -1.140625q-0.09375 -0.4375 -0.09375 -1.421875l0 -5.5625l1.515625 0l0 4.984375q0 1.1875 0.09375 1.609375q0.15625 0.59375 0.609375 0.9375q0.46875 0.34375 1.15625 0.34375q0.6875 0 1.28125 -0.34375q0.609375 -0.359375 0.859375 -0.953125q0.25 -0.609375 0.25 -1.765625l0 -4.8125l1.515625 0l0 8.984375l-1.359375 0zm3.71521 0l0 -12.40625l1.515625 0l0 12.40625l-1.515625 0zm3.849762 0l0 -12.40625l1.515625 0l0 12.40625l-1.515625 0z" fill-rule="nonzero"/><path fill="#ffffff" d="m154.90552 654.1155l0 0c0 -24.161377 19.586655 -43.748047 43.74803 -43.748047l0 0c11.602692 0 22.730179 4.609192 30.934525 12.813538c8.204346 8.204346 12.813507 19.331787 12.813507 30.93451l0 0c0 24.161377 -19.58667 43.748047 -43.74803 43.748047l0 0c-24.161377 0 -43.74803 -19.58667 -43.74803 -43.748047z" fill-rule="evenodd"/><path stroke="#000000" stroke-width="1.0" stroke-linejoin="round" stroke-linecap="butt" d="m154.90552 654.1155l0 0c0 -24.161377 19.586655 -43.748047 43.74803 -43.748047l0 0c11.602692 0 22.730179 4.609192 30.934525 12.813538c8.204346 8.204346 12.813507 19.331787 12.813507 30.93451l0 0c0 24.161377 -19.58667 43.748047 -43.74803 43.748047l0 0c-24.161377 0 -43.74803 -19.58667 -43.74803 -43.748047z" fill-rule="evenodd"/><path fill="#000000" d="m186.5252 660.2555l-2.75 -8.984375l1.578125 0l1.421875 5.1875l0.546875 1.921875q0.03125 -0.140625 0.453125 -1.84375l1.4375 -5.265625l1.5625 0l1.34375 5.203125l0.453125 1.71875l0.515625 -1.734375l1.53125 -5.1875l1.484375 0l-2.8125 8.984375l-1.578125 0l-1.421875 -5.375l-0.359375 -1.53125l-1.8125 6.90625l-1.59375 0zm16.71695 -1.109375q-0.84375 0.71875 -1.625 1.015625q-0.78125 0.296875 -1.671875 0.296875q-1.484375 0 -2.28125 -0.71875q-0.796875 -0.734375 -0.796875 -1.859375q0 -0.65625 0.296875 -1.203125q0.3125 -0.546875 0.796875 -0.875q0.484375 -0.328125 1.09375 -0.5q0.4375 -0.109375 1.34375 -0.21875q1.84375 -0.21875 2.71875 -0.53125q0.015625 -0.3125 0.015625 -0.390625q0 -0.9375 -0.4375 -1.3125q-0.578125 -0.515625 -1.734375 -0.515625q-1.078125 0 -1.59375 0.375q-0.5 0.375 -0.75 1.328125l-1.484375 -0.203125q0.203125 -0.953125 0.65625 -1.53125q0.46875 -0.59375 1.34375 -0.90625q0.890625 -0.328125 2.046875 -0.328125q1.15625 0 1.875 0.28125q0.71875 0.265625 1.046875 0.671875q0.34375 0.40625 0.484375 1.03125q0.078125 0.390625 0.078125 1.40625l0 2.03125q0 2.125 0.09375 2.6875q0.09375 0.5625 0.390625 1.078125l-1.59375 0q-0.234375 -0.46875 -0.3125 -1.109375zm-0.125 -3.40625q-0.828125 0.34375 -2.484375 0.578125q-0.9375 0.140625 -1.328125 0.3125q-0.390625 0.171875 -0.609375 0.5q-0.203125 0.3125 -0.203125 0.71875q0 0.609375 0.453125 1.015625q0.46875 0.40625 1.359375 0.40625q0.875 0 1.5625 -0.390625q0.6875 -0.390625 1.015625 -1.046875q0.234375 -0.515625 0.234375 -1.53125l0 -0.5625zm3.87146 4.515625l0 -12.40625l1.515625 0l0 12.40625l-1.515625 0zm3.849762 0l0 -12.40625l1.515625 0l0 12.40625l-1.515625 0z" fill-rule="nonzero"/><path fill="#000000" fill-opacity="0.0" d="m198.59055 505.16534c0 -4.433075 0.01574707 -6.649597 0.03149414 -8.866119c0.01576233 -2.2165527 0.0315094 -4.433075 0.0315094 -8.86615" fill-rule="evenodd"/><path stroke="#000000" stroke-width="1.0" stroke-linejoin="round" stroke-linecap="butt" d="m198.59055 505.16534c0 -4.433075 0.01574707 -6.649597 0.03149414 -8.866119c0.01576233 -2.2165527 0.0315094 -4.433075 0.0315094 -8.86615" fill-rule="evenodd"/><path fill="#000000" fill-opacity="0.0" d="m242.40158 548.90027c6.0498962 0 9.076187 0.01574707 12.099808 0.03149414c3.0236053 0.01574707 6.044571 0.03149414 12.089157 0.03149414" fill-rule="evenodd"/><path stroke="#000000" stroke-width="1.0" stroke-linejoin="round" stroke-linecap="butt" d="m242.40158 548.90027c6.0498962 0 9.076187 0.01574707 12.099808 0.03149414c3.0236053 0.01574707 6.044571 0.03149414 12.089157 0.03149414" fill-rule="evenodd"/><path fill="#000000" fill-opacity="0.0" d="m198.65355 610.36743c0 -4.4297485 0.01574707 -6.6430054 0.03149414 -8.859558c0.01574707 -2.2165527 0.03149414 -4.4363403 0.03149414 -8.872681" fill-rule="evenodd"/><path stroke="#000000" stroke-width="1.0" stroke-linejoin="round" stroke-linecap="butt" d="m198.65355 610.36743c0 -4.4297485 0.01574707 -6.6430054 0.03149414 -8.859558c0.01574707 -2.2165527 0.03149414 -4.4363403 0.03149414 -8.872681" fill-rule="evenodd"/><path fill="#000000" fill-opacity="0.0" d="m130.70604 548.90027c6.0498962 0 9.076187 0.01574707 12.099808 0.03149414c3.0236206 0.01574707 6.044586 0.03149414 12.089172 0.03149414" fill-rule="evenodd"/><path stroke="#000000" stroke-width="1.0" stroke-linejoin="round" stroke-linecap="butt" d="m130.70604 548.90027c6.0498962 0 9.076187 0.01574707 12.099808 0.03149414c3.0236206 0.01574707 6.044586 0.03149414 12.089172 0.03149414" fill-rule="evenodd"/><path fill="#ffffff" d="m266.60104 654.1155l0 0c0 -24.161377 19.58667 -43.748047 43.748047 -43.748047l0 0c11.602692 0 22.730164 4.609192 30.93451 12.813538c8.204346 8.204346 12.813507 19.331787 12.813507 30.93451l0 0c0 24.161377 -19.58667 43.748047 -43.748016 43.748047l0 0c-24.161377 0 -43.748047 -19.58667 -43.748047 -43.748047z" fill-rule="evenodd"/><path stroke="#000000" stroke-width="1.0" stroke-linejoin="round" stroke-linecap="butt" d="m266.60104 654.1155l0 0c0 -24.161377 19.58667 -43.748047 43.748047 -43.748047l0 0c11.602692 0 22.730164 4.609192 30.93451 12.813538c8.204346 8.204346 12.813507 19.331787 12.813507 30.93451l0 0c0 24.161377 -19.58667 43.748047 -43.748016 43.748047l0 0c-24.161377 0 -43.748047 -19.58667 -43.748047 -43.748047z" fill-rule="evenodd"/><path fill="#000000" d="m296.91965 660.2555l0 -7.796875l-1.34375 0l0 -1.1875l1.34375 0l0 -0.953125q0 -0.90625 0.171875 -1.34375q0.21875 -0.59375 0.765625 -0.953125q0.5625 -0.375 1.5625 -0.375q0.640625 0 1.421875 0.140625l-0.234375 1.328125q-0.46875 -0.078125 -0.890625 -0.078125q-0.703125 0 -1.0 0.296875q-0.28125 0.296875 -0.28125 1.109375l0 0.828125l1.75 0l0 1.1875l-1.75 0l0 7.796875l-1.515625 0zm4.4393005 0l0 -8.984375l1.375 0l0 1.359375q0.515625 -0.953125 0.953125 -1.25q0.453125 -0.3125 0.984375 -0.3125q0.78125 0 1.5625 0.484375l-0.515625 1.421875q-0.5625 -0.328125 -1.125 -0.328125q-0.5 0 -0.890625 0.296875q-0.390625 0.296875 -0.5625 0.828125q-0.265625 0.8125 -0.265625 1.78125l0 4.703125l-1.515625 0zm11.942291 -2.890625l1.5625 0.1875q-0.359375 1.390625 -1.375 2.15625q-1.0 0.75 -2.5625 0.75q-1.984375 0 -3.140625 -1.203125q-1.140625 -1.21875 -1.140625 -3.421875q0 -2.265625 1.15625 -3.515625q1.171875 -1.25 3.03125 -1.25q1.8125 0 2.953125 1.234375q1.140625 1.21875 1.140625 3.4375q0 0.140625 -0.015625 0.40625l-6.703125 0q0.09375 1.484375 0.84375 2.28125q0.75 0.78125 1.875 0.78125q0.84375 0 1.4375 -0.4375q0.59375 -0.4375 0.9375 -1.40625zm-5.0 -2.46875l5.015625 0q-0.109375 -1.125 -0.578125 -1.703125q-0.734375 -0.875 -1.890625 -0.875q-1.046875 0 -1.765625 0.703125q-0.703125 0.703125 -0.78125 1.875zm14.637085 2.46875l1.5625 0.1875q-0.359375 1.390625 -1.375 2.15625q-1.0 0.75 -2.5625 0.75q-1.984375 0 -3.140625 -1.203125q-1.140625 -1.21875 -1.140625 -3.421875q0 -2.265625 1.15625 -3.515625q1.171875 -1.25 3.03125 -1.25q1.8125 0 2.953125 1.234375q1.140625 1.21875 1.140625 3.4375q0 0.140625 -0.015625 0.40625l-6.703125 0q0.09375 1.484375 0.84375 2.28125q0.75 0.78125 1.875 0.78125q0.84375 0 1.4375 -0.4375q0.59375 -0.4375 0.9375 -1.40625zm-5.0 -2.46875l5.015625 0q-0.109375 -1.125 -0.578125 -1.703125q-0.734375 -0.875 -1.890625 -0.875q-1.046875 0 -1.765625 0.703125q-0.703125 0.703125 -0.78125 1.875z" fill-rule="nonzero"/><path fill="#000000" fill-opacity="0.0" d="m310.3491 610.36743c0 -4.4297485 0.01574707 -6.6430054 0.03149414 -8.859558c0.01574707 -2.2165527 0.03149414 -4.4363403 0.03149414 -8.872681" fill-rule="evenodd"/><path stroke="#000000" stroke-width="1.0" stroke-linejoin="round" stroke-linecap="butt" d="m310.3491 610.36743c0 -4.4297485 0.01574707 -6.6430054 0.03149414 -8.859558c0.01574707 -2.2165527 0.03149414 -4.4363403 0.03149414 -8.872681" fill-rule="evenodd"/><path fill="#000000" fill-opacity="0.0" d="m266.60104 654.1155c-6.0498962 0 -9.076172 0.01574707 -12.099808 0.03149414c-3.0236206 0.01574707 -6.044586 0.03149414 -12.089157 0.03149414" fill-rule="evenodd"/><path stroke="#000000" stroke-width="1.0" stroke-linejoin="round" stroke-linecap="butt" d="m266.60104 654.1155c-6.0498962 0 -9.076172 0.01574707 -12.099808 0.03149414c-3.0236206 0.01574707 -6.044586 0.03149414 -12.089157 0.03149414" fill-rule="evenodd"/><path fill="#ffffff" d="m378.2966 548.8937l0 0c0 -24.161377 19.58664 -43.748016 43.748016 -43.748016l0 0c11.602692 0 22.730194 4.6091614 30.93454 12.813507c8.204346 8.204346 12.813507 19.331848 12.813507 30.93451l0 0c0 24.161377 -19.58667 43.748047 -43.748047 43.748047l0 0c-24.161377 0 -43.748016 -19.58667 -43.748016 -43.748047z" fill-rule="evenodd"/><path stroke="#000000" stroke-width="1.0" stroke-linejoin="round" stroke-linecap="butt" d="m378.2966 548.8937l0 0c0 -24.161377 19.58664 -43.748016 43.748016 -43.748016l0 0c11.602692 0 22.730194 4.6091614 30.93454 12.813507c8.204346 8.204346 12.813507 19.331848 12.813507 30.93451l0 0c0 24.161377 -19.58667 43.748047 -43.748047 43.748047l0 0c-24.161377 0 -43.748016 -19.58667 -43.748016 -43.748047z" fill-rule="evenodd"/><path fill="#000000" d="m409.9163 555.0337l-2.75 -8.984375l1.578125 0l1.421875 5.1875l0.546875 1.921875q0.03125 -0.140625 0.453125 -1.84375l1.4375 -5.265625l1.5625 0l1.34375 5.203125l0.453125 1.71875l0.515625 -1.734375l1.53125 -5.1875l1.484375 0l-2.8125 8.984375l-1.578125 0l-1.421875 -5.375l-0.359375 -1.53125l-1.8125 6.90625l-1.59375 0zm16.71695 -1.109375q-0.84375 0.71875 -1.625 1.015625q-0.78125 0.296875 -1.671875 0.296875q-1.484375 0 -2.28125 -0.71875q-0.796875 -0.734375 -0.796875 -1.859375q0 -0.65625 0.296875 -1.203125q0.3125 -0.546875 0.796875 -0.875q0.484375 -0.328125 1.09375 -0.5q0.4375 -0.109375 1.34375 -0.21875q1.84375 -0.21875 2.71875 -0.53125q0.015625 -0.3125 0.015625 -0.390625q0 -0.9375 -0.4375 -1.3125q-0.578125 -0.515625 -1.734375 -0.515625q-1.078125 0 -1.59375 0.375q-0.5 0.375 -0.75 1.328125l-1.484375 -0.203125q0.203125 -0.953125 0.65625 -1.53125q0.46875 -0.59375 1.34375 -0.90625q0.890625 -0.328125 2.046875 -0.328125q1.15625 0 1.875 0.28125q0.71875 0.265625 1.046875 0.671875q0.34375 0.40625 0.484375 1.03125q0.078125 0.390625 0.078125 1.40625l0 2.03125q0 2.125 0.09375 2.6875q0.09375 0.5625 0.390625 1.078125l-1.59375 0q-0.234375 -0.46875 -0.3125 -1.109375zm-0.125 -3.40625q-0.828125 0.34375 -2.484375 0.578125q-0.9375 0.140625 -1.328125 0.3125q-0.390625 0.171875 -0.609375 0.5q-0.203125 0.3125 -0.203125 0.71875q0 0.609375 0.453125 1.015625q0.46875 0.40625 1.359375 0.40625q0.875 0 1.5625 -0.390625q0.6875 -0.390625 1.015625 -1.046875q0.234375 -0.515625 0.234375 -1.53125l0 -0.5625zm3.87146 4.515625l0 -12.40625l1.515625 0l0 12.40625l-1.515625 0zm3.849762 0l0 -12.40625l1.515625 0l0 12.40625l-1.515625 0z" fill-rule="nonzero"/><path fill="#ffffff" d="m378.2966 654.10895l0 0c0 -24.161377 19.58664 -43.748047 43.748016 -43.748047l0 0c11.602692 0 22.730194 4.609131 30.93454 12.813477c8.204346 8.204346 12.813507 19.331848 12.813507 30.93457l0 0c0 24.161377 -19.58667 43.747986 -43.748047 43.747986l0 0c-24.161377 0 -43.748016 -19.586609 -43.748016 -43.747986z" fill-rule="evenodd"/><path stroke="#000000" stroke-width="1.0" stroke-linejoin="round" stroke-linecap="butt" d="m378.2966 654.10895l0 0c0 -24.161377 19.58664 -43.748047 43.748016 -43.748047l0 0c11.602692 0 22.730194 4.609131 30.93454 12.813477c8.204346 8.204346 12.813507 19.331848 12.813507 30.93457l0 0c0 24.161377 -19.58667 43.747986 -43.748047 43.747986l0 0c-24.161377 0 -43.748016 -19.586609 -43.748016 -43.747986z" fill-rule="evenodd"/><path fill="#000000" d="m410.25696 646.452l1.5 0.203125q-0.234375 1.546875 -1.25 2.421875q-1.015625 0.875 -2.484375 0.875q-1.84375 0 -2.96875 -1.203125q-1.125 -1.203125 -1.125 -3.453125q0 -1.46875 0.484375 -2.546875q0.484375 -1.09375 1.46875 -1.640625q0.984375 -0.546875 2.140625 -0.546875q1.46875 0 2.390625 0.75q0.9375 0.734375 1.203125 2.09375l-1.484375 0.21875q-0.203125 -0.890625 -0.75 -1.34375q-0.53125 -0.46875 -1.296875 -0.46875q-1.140625 0 -1.875 0.828125q-0.71875 0.828125 -0.71875 2.609375q0 1.8125 0.6875 2.640625q0.703125 0.8125 1.828125 0.8125q0.890625 0 1.484375 -0.546875q0.609375 -0.5625 0.765625 -1.703125zm2.8046875 3.296875l0 -12.40625l1.53125 0l0 4.453125q1.0625 -1.234375 2.6875 -1.234375q1.0 0 1.734375 0.390625q0.734375 0.390625 1.046875 1.09375q0.328125 0.6875 0.328125 2.015625l0 5.6875l-1.53125 0l0 -5.6875q0 -1.15625 -0.5 -1.671875q-0.484375 -0.515625 -1.390625 -0.515625q-0.6875 0 -1.28125 0.359375q-0.59375 0.34375 -0.84375 0.953125q-0.25 0.59375 -0.25 1.640625l0 4.921875l-1.53125 0zm15.793335 -2.890625l1.5625 0.1875q-0.359375 1.390625 -1.375 2.15625q-1.0 0.75 -2.5625 0.75q-1.984375 0 -3.140625 -1.203125q-1.140625 -1.21875 -1.140625 -3.421875q0 -2.265625 1.15625 -3.515625q1.171875 -1.25 3.03125 -1.25q1.8125 0 2.953125 1.234375q1.140625 1.21875 1.140625 3.4375q0 0.140625 -0.015625 0.40625l-6.703125 0q0.09375 1.484375 0.84375 2.28125q0.75 0.78125 1.875 0.78125q0.84375 0 1.4375 -0.4375q0.59375 -0.4375 0.9375 -1.40625zm-5.0 -2.46875l5.015625 0q-0.109375 -1.125 -0.578125 -1.703125q-0.734375 -0.875 -1.890625 -0.875q-1.046875 0 -1.765625 0.703125q-0.703125 0.703125 -0.78125 1.875zm14.637085 2.46875l1.5625 0.1875q-0.359375 1.390625 -1.375 2.15625q-1.0 0.75 -2.5625 0.75q-1.984375 0 -3.140625 -1.203125q-1.140625 -1.21875 -1.140625 -3.421875q0 -2.265625 1.15625 -3.515625q1.171875 -1.25 3.03125 -1.25q1.8125 0 2.953125 1.234375q1.140625 1.21875 1.140625 3.4375q0 0.140625 -0.015625 0.40625l-6.703125 0q0.09375 1.484375 0.84375 2.28125q0.75 0.78125 1.875 0.78125q0.84375 0 1.4375 -0.4375q0.59375 -0.4375 0.9375 -1.40625zm-5.0 -2.46875l5.015625 0q-0.109375 -1.125 -0.578125 -1.703125q-0.734375 -0.875 -1.890625 -0.875q-1.046875 0 -1.765625 0.703125q-0.703125 0.703125 -0.78125 1.875z" fill-rule="nonzero"/><path fill="#000000" d="m413.4253 668.0614l1.515625 -0.234375q0.125 0.90625 0.703125 1.390625q0.578125 0.484375 1.609375 0.484375q1.0625 0 1.5625 -0.421875q0.515625 -0.4375 0.515625 -1.015625q0 -0.515625 -0.453125 -0.8125q-0.3125 -0.203125 -1.5625 -0.515625q-1.671875 -0.421875 -2.328125 -0.71875q-0.640625 -0.3125 -0.984375 -0.859375q-0.328125 -0.546875 -0.328125 -1.203125q0 -0.609375 0.28125 -1.109375q0.28125 -0.515625 0.75 -0.859375q0.359375 -0.265625 0.96875 -0.4375q0.609375 -0.1875 1.3125 -0.1875q1.0625 0 1.859375 0.3125q0.796875 0.296875 1.171875 0.828125q0.390625 0.515625 0.53125 1.375l-1.484375 0.203125q-0.109375 -0.6875 -0.59375 -1.078125q-0.484375 -0.390625 -1.375 -0.390625q-1.046875 0 -1.5 0.34375q-0.4375 0.34375 -0.4375 0.8125q0 0.296875 0.171875 0.53125q0.1875 0.25 0.59375 0.40625q0.21875 0.09375 1.34375 0.390625q1.609375 0.4375 2.25 0.71875q0.640625 0.265625 1.0 0.796875q0.375 0.515625 0.375 1.296875q0 0.765625 -0.453125 1.4375q-0.4375 0.671875 -1.28125 1.046875q-0.828125 0.359375 -1.890625 0.359375q-1.75 0 -2.671875 -0.71875q-0.921875 -0.734375 -1.171875 -2.171875zm15.4296875 -0.203125l1.5625 0.1875q-0.359375 1.390625 -1.375 2.15625q-1.0 0.75 -2.5625 0.75q-1.984375 0 -3.140625 -1.203125q-1.140625 -1.21875 -1.140625 -3.421875q0 -2.265625 1.15625 -3.515625q1.171875 -1.25 3.03125 -1.25q1.8125 0 2.953125 1.234375q1.140625 1.21875 1.140625 3.4375q0 0.140625 -0.015625 0.40625l-6.703125 0q0.09375 1.484375 0.84375 2.28125q0.75 0.78125 1.875 0.78125q0.84375 0 1.4375 -0.4375q0.59375 -0.4375 0.9375 -1.40625zm-5.0 -2.46875l5.015625 0q-0.109375 -1.125 -0.578125 -1.703125q-0.734375 -0.875 -1.890625 -0.875q-1.046875 0 -1.765625 0.703125q-0.703125 0.703125 -0.78125 1.875z" fill-rule="nonzero"/><path fill="#000000" fill-opacity="0.0" d="m354.0971 548.90027c6.0498962 0 9.076202 0.01574707 12.099823 0.03149414c3.0236206 0.01574707 6.044586 0.03149414 12.089172 0.03149414" fill-rule="evenodd"/><path stroke="#000000" stroke-width="1.0" stroke-linejoin="round" stroke-linecap="butt" d="m354.0971 548.90027c6.0498962 0 9.076202 0.01574707 12.099823 0.03149414c3.0236206 0.01574707 6.044586 0.03149414 12.089172 0.03149414" fill-rule="evenodd"/><path fill="#000000" fill-opacity="0.0" d="m354.0971 654.1155c6.0498962 0 9.076202 0.01574707 12.099823 0.03149414c3.0236206 0.01574707 6.044586 0.03149414 12.089172 0.03149414" fill-rule="evenodd"/><path stroke="#000000" stroke-width="1.0" stroke-linejoin="round" stroke-linecap="butt" d="m354.0971 654.1155c6.0498962 0 9.076202 0.01574707 12.099823 0.03149414c3.0236206 0.01574707 6.044586 0.03149414 12.089172 0.03149414" fill-rule="evenodd"/><path fill="#000000" fill-opacity="0.0" d="m422.04462 592.6417c0 4.4298096 0.01574707 6.6430664 0.03149414 8.859619c0.01574707 2.2164917 0.03149414 4.4363403 0.03149414 8.872681" fill-rule="evenodd"/><path stroke="#000000" stroke-width="1.0" stroke-linejoin="round" stroke-linecap="butt" d="m422.04462 592.6417c0 4.4298096 0.01574707 6.6430664 0.03149414 8.859619c0.01574707 2.2164917 0.03149414 4.4363403 0.03149414 8.872681" fill-rule="evenodd"/><path fill="#d9d9d9" d="m266.63254 443.68503l0 0c0 -24.161346 19.58667 -43.748016 43.748047 -43.748016l0 0c11.602692 0 22.730164 4.6091614 30.93451 12.813507c8.204346 8.204346 12.813507 19.331818 12.813507 30.93451l0 0c0 24.161377 -19.58664 43.748047 -43.748016 43.748047l0 0c-24.161377 0 -43.748047 -19.58667 -43.748047 -43.748047z" fill-rule="evenodd"/><path stroke="#000000" stroke-width="1.0" stroke-linejoin="round" stroke-linecap="butt" d="m266.63254 443.68503l0 0c0 -24.161346 19.58667 -43.748016 43.748047 -43.748016l0 0c11.602692 0 22.730164 4.6091614 30.93451 12.813507c8.204346 8.204346 12.813507 19.331818 12.813507 30.93451l0 0c0 24.161377 -19.58664 43.748047 -43.748016 43.748047l0 0c-24.161377 0 -43.748047 -19.58667 -43.748047 -43.748047z" fill-rule="evenodd"/><path fill="#000000" d="m298.03436 449.82504l0 -8.984375l1.375 0l0 1.28125q0.984375 -1.484375 2.859375 -1.484375q0.8125 0 1.484375 0.296875q0.6875 0.28125 1.015625 0.765625q0.34375 0.46875 0.484375 1.125q0.078125 0.421875 0.078125 1.46875l0 5.53125l-1.515625 0l0 -5.46875q0 -0.921875 -0.1875 -1.375q-0.171875 -0.46875 -0.625 -0.75q-0.453125 -0.28125 -1.0625 -0.28125q-0.96875 0 -1.671875 0.625q-0.703125 0.609375 -0.703125 2.34375l0 4.90625l-1.53125 0zm15.52771 0l0 -1.3125q-1.046875 1.515625 -2.84375 1.515625q-0.796875 0 -1.5 -0.296875q-0.6875 -0.3125 -1.015625 -0.765625q-0.328125 -0.46875 -0.46875 -1.140625q-0.09375 -0.4375 -0.09375 -1.421875l0 -5.5625l1.515625 0l0 4.984375q0 1.1875 0.09375 1.609375q0.15625 0.59375 0.609375 0.9375q0.46875 0.34375 1.15625 0.34375q0.6875 0 1.28125 -0.34375q0.609375 -0.359375 0.859375 -0.953125q0.25 -0.609375 0.25 -1.765625l0 -4.8125l1.515625 0l0 8.984375l-1.359375 0zm3.71521 0l0 -12.40625l1.515625 0l0 12.40625l-1.515625 0zm3.849762 0l0 -12.40625l1.515625 0l0 12.40625l-1.515625 0z" fill-rule="nonzero"/><path fill="#d9d9d9" d="m378.3596 443.67978l0 0c0 -24.161346 19.58664 -43.748016 43.748016 -43.748016l0 0c11.602692 0 22.730194 4.6091614 30.93454 12.813507c8.204346 8.204346 12.813507 19.331818 12.813507 30.93451l0 0c0 24.161377 -19.58667 43.748047 -43.748047 43.748047l0 0c-24.161377 0 -43.748016 -19.58667 -43.748016 -43.748047z" fill-rule="evenodd"/><path stroke="#000000" stroke-width="1.0" stroke-linejoin="round" stroke-linecap="butt" d="m378.3596 443.67978l0 0c0 -24.161346 19.58664 -43.748016 43.748016 -43.748016l0 0c11.602692 0 22.730194 4.6091614 30.93454 12.813507c8.204346 8.204346 12.813507 19.331818 12.813507 30.93451l0 0c0 24.161377 -19.58667 43.748047 -43.748047 43.748047l0 0c-24.161377 0 -43.748016 -19.58667 -43.748016 -43.748047z" fill-rule="evenodd"/><path fill="#000000" d="m409.76138 449.8198l0 -8.984375l1.375 0l0 1.28125q0.984375 -1.484375 2.859375 -1.484375q0.8125 0 1.484375 0.296875q0.6875 0.28125 1.015625 0.765625q0.34375 0.46875 0.484375 1.125q0.078125 0.421875 0.078125 1.46875l0 5.53125l-1.515625 0l0 -5.46875q0 -0.921875 -0.1875 -1.375q-0.171875 -0.46875 -0.625 -0.75q-0.453125 -0.28125 -1.0625 -0.28125q-0.96875 0 -1.671875 0.625q-0.703125 0.609375 -0.703125 2.34375l0 4.90625l-1.53125 0zm15.52771 0l0 -1.3125q-1.046875 1.515625 -2.84375 1.515625q-0.796875 0 -1.5 -0.296875q-0.6875 -0.3125 -1.015625 -0.765625q-0.328125 -0.46875 -0.46875 -1.140625q-0.09375 -0.4375 -0.09375 -1.421875l0 -5.5625l1.515625 0l0 4.984375q0 1.1875 0.09375 1.609375q0.15625 0.59375 0.609375 0.9375q0.46875 0.34375 1.15625 0.34375q0.6875 0 1.28125 -0.34375q0.609375 -0.359375 0.859375 -0.953125q0.25 -0.609375 0.25 -1.765625l0 -4.8125l1.515625 0l0 8.984375l-1.359375 0zm3.71521 0l0 -12.40625l1.515625 0l0 12.40625l-1.515625 0zm3.849762 0l0 -12.40625l1.515625 0l0 12.40625l-1.515625 0z" fill-rule="nonzero"/><path fill="#000000" fill-opacity="0.0" d="m310.3491 505.15222c0 -4.429779 0.01574707 -6.643036 0.03149414 -8.859558c0.01574707 -2.2165527 0.03149414 -4.436371 0.03149414 -8.872711" fill-rule="evenodd"/><path stroke="#000000" stroke-width="1.0" stroke-linejoin="round" stroke-linecap="butt" d="m310.3491 505.15222c0 -4.429779 0.01574707 -6.643036 0.03149414 -8.859558c0.01574707 -2.2165527 0.03149414 -4.436371 0.03149414 -8.872711" fill-rule="evenodd"/><path fill="#000000" fill-opacity="0.0" d="m422.04462 505.1601c0 -4.433075 0.01574707 -6.649597 0.03149414 -8.866119c0.01574707 -2.2165527 0.03149414 -4.433075 0.03149414 -8.86615" fill-rule="evenodd"/><path stroke="#000000" stroke-width="1.0" stroke-linejoin="round" stroke-linecap="butt" d="m422.04462 505.1601c0 -4.433075 0.01574707 -6.649597 0.03149414 -8.866119c0.01574707 -2.2165527 0.03149414 -4.433075 0.03149414 -8.86615" fill-rule="evenodd"/></g></svg>